<svg width="1600" height="1200" viewBox="0 0 1600 1200" fill="none" xmlns="http://www.w3.org/2000/svg">
  <rect width="1600" height="1200" fill="url(#bg)"/>
  <g opacity="0.35" filter="url(#blur)">
    <circle cx="1260" cy="210" r="220" fill="#D5B36B"/>
    <circle cx="270" cy="930" r="260" fill="#0F5D43"/>
    <circle cx="940" cy="950" r="260" fill="#8E1F2E"/>
  </g>
  <path d="M255 805C255 733.203 313.203 675 385 675H1215C1286.8 675 1345 733.203 1345 805V915C1345 986.797 1286.8 1045 1215 1045H385C313.203 1045 255 986.797 255 915V805Z" fill="#0A0908" fill-opacity="0.72" stroke="#D4AF67" stroke-opacity="0.35" stroke-width="4"/>
  <g filter="url(#shadow)">
    <ellipse cx="797" cy="777" rx="445" ry="126" fill="#16100E"/>
    <ellipse cx="797" cy="777" rx="431" ry="114" fill="url(#tray)"/>
    <ellipse cx="797" cy="777" rx="401" ry="92" fill="#0D0C0B" fill-opacity="0.9"/>
  </g>
  <g>
    <circle cx="800" cy="466" r="210" fill="#F1E9D8"/>
    <circle cx="800" cy="466" r="190" fill="url(#plate)"/>
    <circle cx="800" cy="466" r="146" fill="#A22934"/>
    <circle cx="800" cy="466" r="124" fill="#B96C2F"/>
    <path d="M728 402C760 366 844 359 882 395C921 432 913 509 866 550C819 591 749 589 706 544C662 499 679 452 728 402Z" fill="#F6C65D"/>
    <path d="M714 432C742 410 785 406 816 418C848 431 876 461 882 496C839 521 780 527 735 509C695 493 676 462 714 432Z" fill="#FF8F52"/>
    <circle cx="725" cy="548" r="18" fill="#F8F1E2"/>
    <circle cx="858" cy="332" r="16" fill="#F8F1E2"/>
    <path d="M714 555C734 534 756 524 786 524C767 551 746 567 714 555Z" fill="#1E6C4B"/>
    <path d="M854 548C832 527 808 521 783 525C804 552 826 566 854 548Z" fill="#207251"/>
    <path d="M695 382C707 357 728 342 760 336C750 364 731 382 695 382Z" fill="#1F6F4D"/>
    <path d="M897 401C882 376 859 361 826 355C838 382 859 397 897 401Z" fill="#2B7B59"/>
  </g>
  <g transform="translate(410 305)">
    <circle cx="0" cy="0" r="124" fill="#F2EDE4"/>
    <circle cx="0" cy="0" r="108" fill="#183F33"/>
    <circle cx="-14" cy="-10" r="46" fill="#F7E7C5"/>
    <circle cx="32" cy="14" r="40" fill="#C5A64B"/>
    <circle cx="-42" cy="36" r="22" fill="#A52631"/>
    <path d="M-58 -54C-44 -74 -26 -82 3 -79C-13 -57 -32 -48 -58 -54Z" fill="#2C7B5A"/>
    <path d="M44 -52C29 -71 8 -80 -20 -76C-4 -55 17 -45 44 -52Z" fill="#2A7656"/>
  </g>
  <g transform="translate(1184 366)">
    <circle cx="0" cy="0" r="138" fill="#F2EDE4"/>
    <circle cx="0" cy="0" r="118" fill="#19130F"/>
    <circle cx="-8" cy="-18" r="54" fill="#E88935"/>
    <path d="M-64 23C-34 -11 6 -19 47 9C15 42 -28 53 -64 23Z" fill="#F8C94E"/>
    <circle cx="64" cy="-44" r="14" fill="#EFE5D0"/>
    <circle cx="-64" cy="-35" r="16" fill="#EFE5D0"/>
    <path d="M-80 58C-52 42 -24 41 4 53C-21 71 -47 75 -80 58Z" fill="#2B7A58"/>
  </g>
  <g transform="translate(1185 765)">
    <circle cx="0" cy="0" r="132" fill="#F3EFE8"/>
    <circle cx="0" cy="0" r="112" fill="#51311C"/>
    <path d="M-66 8C-56 -45 -12 -70 46 -47C48 9 11 48 -43 51C-63 43 -72 31 -66 8Z" fill="#F2D470"/>
    <path d="M-78 -8C-42 -24 5 -16 44 7C20 34 -11 47 -51 41C-73 31 -82 14 -78 -8Z" fill="#FFF3D9"/>
    <circle cx="54" cy="44" r="14" fill="#EFE5D1"/>
  </g>
  <g transform="translate(408 745)">
    <circle cx="0" cy="0" r="122" fill="#F4EEE5"/>
    <circle cx="0" cy="0" r="106" fill="#A32D39"/>
    <circle cx="-24" cy="-10" r="42" fill="#F8B04B"/>
    <circle cx="30" cy="10" r="38" fill="#F2E4BF"/>
    <path d="M-44 49C-21 28 6 22 39 30C19 54 -8 62 -44 49Z" fill="#215F48"/>
    <path d="M-21 -59C-5 -84 21 -93 53 -84C38 -60 13 -50 -21 -59Z" fill="#2E825F"/>
  </g>
  <defs>
    <linearGradient id="bg" x1="210" y1="122" x2="1388" y2="1054" gradientUnits="userSpaceOnUse">
      <stop stop-color="#251010"/>
      <stop offset="0.46" stop-color="#0E0A0A"/>
      <stop offset="1" stop-color="#101210"/>
    </linearGradient>
    <linearGradient id="tray" x1="366" y1="687" x2="1228" y2="876" gradientUnits="userSpaceOnUse">
      <stop stop-color="#7F5B27"/>
      <stop offset="0.5" stop-color="#D7B46D"/>
      <stop offset="1" stop-color="#5E401A"/>
    </linearGradient>
    <radialGradient id="plate" cx="0" cy="0" r="1" gradientUnits="userSpaceOnUse" gradientTransform="translate(800 436) rotate(90) scale(218)">
      <stop stop-color="#FFF8EC"/>
      <stop offset="1" stop-color="#E6D2AE"/>
    </radialGradient>
    <filter id="shadow" x="332" y="637" width="930" height="282" filterUnits="userSpaceOnUse" color-interpolation-filters="sRGB">
      <feDropShadow dx="0" dy="28" stdDeviation="22" flood-color="#000000" flood-opacity="0.35"/>
    </filter>
    <filter id="blur" x="-110" y="-150" width="1590" height="1420" filterUnits="userSpaceOnUse" color-interpolation-filters="sRGB">
      <feGaussianBlur stdDeviation="60"/>
    </filter>
  </defs>
</svg>
