<svg width="1200" height="900" viewBox="0 0 1200 900" fill="none" xmlns="http://www.w3.org/2000/svg">
  <rect width="1200" height="900" fill="url(#bg)"/>
  <circle cx="276" cy="154" r="160" fill="#F0D589" fill-opacity="0.16"/>
  <circle cx="949" cy="743" r="230" fill="#8E1F2E" fill-opacity="0.16"/>
  <ellipse cx="600" cy="472" rx="282" ry="212" fill="#F2EEE6"/>
  <ellipse cx="600" cy="472" rx="246" ry="186" fill="#5B411B"/>
  <ellipse cx="600" cy="472" rx="180" ry="138" fill="#FFF4DE"/>
  <path d="M487 518C481 456 516 398 579 376C636 357 703 380 750 438C732 500 696 547 645 572C576 606 493 584 487 518Z" fill="#F3C553"/>
  <path d="M491 527C536 509 584 517 636 551C600 588 552 598 500 574C490 561 486 545 491 527Z" fill="#F8B747"/>
  <path d="M445 463C478 446 516 444 558 456C533 484 495 489 445 463Z" fill="#FFF3D4"/>
  <path d="M646 595C612 550 568 529 514 532C547 587 591 609 646 595Z" fill="#F5E3BB"/>
  <circle cx="742" cy="409" r="26" fill="#FFF9EE"/>
  <circle cx="786" cy="447" r="22" fill="#FFF9EE"/>
  <circle cx="722" cy="462" r="18" fill="#FFF9EE"/>
  <ellipse cx="600" cy="772" rx="204" ry="34" fill="#080708" fill-opacity="0.35"/>
  <defs>
    <linearGradient id="bg" x1="130" y1="82" x2="1024" y2="820" gradientUnits="userSpaceOnUse">
      <stop stop-color="#5B4316"/>
      <stop offset="0.56" stop-color="#110C09"/>
      <stop offset="1" stop-color="#18100E"/>
    </linearGradient>
  </defs>
</svg>
